<svg width="20" height="20" viewBox="0 0 20 20" fill="none" xmlns="http://www.w3.org/2000/svg">
<mask id="mask0_66_206" style="mask-type:alpha" maskUnits="userSpaceOnUse" x="0" y="0" width="20" height="20">
<rect width="20" height="20" fill="#D9D9D9"/>
</mask>
<g mask="url(#mask0_66_206)">
<path d="M6.58674 14.4964L9.99986 12.9402L13.413 14.4964L13.9844 13.9131L9.99986 4.29353L6.01528 13.9131L6.58674 14.4964ZM9.99986 18.7337C8.78431 18.7337 7.64604 18.5048 6.58507 18.0471C5.52424 17.5893 4.60146 16.968 3.81674 16.1831C3.03188 15.3984 2.41056 14.4756 1.95278 13.4148C1.495 12.3538 1.26611 11.2155 1.26611 9.99998C1.26611 8.78443 1.495 7.64617 1.95278 6.58519C2.41056 5.52436 3.03188 4.60158 3.81674 3.81686C4.60146 3.032 5.52424 2.41068 6.58507 1.9529C7.64604 1.49512 8.78431 1.26624 9.99986 1.26624C11.2154 1.26624 12.3537 1.49512 13.4147 1.9529C14.4755 2.41068 15.3983 3.032 16.183 3.81686C16.9678 4.60158 17.5892 5.52436 18.0469 6.58519C18.5047 7.64617 18.7336 8.78443 18.7336 9.99998C18.7336 11.2155 18.5047 12.3538 18.0469 13.4148C17.5892 14.4756 16.9678 15.3984 16.183 16.1831C15.3983 16.968 14.4755 17.5893 13.4147 18.0471C12.3537 18.5048 11.2154 18.7337 9.99986 18.7337ZM9.99986 16.5254C11.8296 16.5254 13.3746 15.8953 14.6349 14.635C15.8951 13.3747 16.5253 11.8297 16.5253 9.99998C16.5253 8.17026 15.8951 6.62526 14.6349 5.36498C13.3746 4.10471 11.8296 3.47457 9.99986 3.47457C8.17014 3.47457 6.62514 4.10471 5.36486 5.36498C4.10459 6.62526 3.47445 8.17026 3.47445 9.99998C3.47445 11.8297 4.10459 13.3747 5.36486 14.635C6.62514 15.8953 8.17014 16.5254 9.99986 16.5254Z" fill="white"/>
</g>
</svg>
