<svg width="20" height="20" viewBox="0 0 20 20" fill="none" xmlns="http://www.w3.org/2000/svg">
<mask id="mask0_66_221" style="mask-type:alpha" maskUnits="userSpaceOnUse" x="0" y="0" width="20" height="20">
<rect width="20" height="20" fill="#D9D9D9"/>
</mask>
<g mask="url(#mask0_66_221)">
<path d="M3.47445 17.9004C2.85917 17.9004 2.33729 17.6862 1.90882 17.2577C1.48035 16.8292 1.26611 16.3073 1.26611 15.6921V6.99644C1.26611 6.38103 1.48035 5.85908 1.90882 5.43061C2.33729 5.00228 2.85917 4.78811 3.47445 4.78811H6.30153V3.12144C6.30153 2.50603 6.51577 1.98408 6.94424 1.55561C7.37257 1.12714 7.89445 0.912903 8.50986 0.912903H11.4899C12.1053 0.912903 12.6272 1.12714 13.0555 1.55561C13.484 1.98408 13.6982 2.50603 13.6982 3.12144V4.78811H16.5253C17.1406 4.78811 17.6624 5.00228 18.0909 5.43061C18.5194 5.85908 18.7336 6.38103 18.7336 6.99644V15.6921C18.7336 16.3073 18.5194 16.8292 18.0909 17.2577C17.6624 17.6862 17.1406 17.9004 16.5253 17.9004H3.47445ZM3.47445 15.6921H6.66653V13.451C6.30542 13.3677 6.00681 13.1767 5.7707 12.8781C5.53459 12.5795 5.41653 12.2357 5.41653 11.8469V8.45103H6.24986V11.5969H6.87486V8.45103H7.7082V11.5969H8.3332V8.45103H9.16653V11.8469C9.16653 12.2357 9.04847 12.5795 8.81236 12.8781C8.57625 13.1767 8.27764 13.3677 7.91653 13.451V15.6921H12.0832V14.1177C11.7221 13.9094 11.4235 13.5587 11.1874 13.0656C10.9513 12.5726 10.8332 12.0066 10.8332 11.3677C10.8332 10.5621 11.0138 9.87464 11.3749 9.30519C11.736 8.73575 12.1804 8.45103 12.7082 8.45103C13.2221 8.45103 13.6631 8.73575 14.0311 9.30519C14.3992 9.87464 14.5832 10.5621 14.5832 11.3677C14.5832 12.0205 14.4651 12.5934 14.229 13.0864C13.9929 13.5795 13.6943 13.9232 13.3332 14.1177V15.6921H16.5253V6.99644H3.47445V15.6921ZM8.50986 4.78811H11.4899V3.12144H8.50986V4.78811Z" fill="white"/>
</g>
</svg>
