<svg width="20" height="20" viewBox="0 0 20 20" fill="none" xmlns="http://www.w3.org/2000/svg">
<mask id="mask0_66_241" style="mask-type:alpha" maskUnits="userSpaceOnUse" x="0" y="0" width="20" height="20">
<rect width="20" height="20" fill="#D9D9D9"/>
</mask>
<g mask="url(#mask0_66_241)">
<path d="M1.26611 18.7337V3.47457C1.26611 2.85929 1.48035 2.33742 1.90882 1.90894C2.33729 1.48047 2.85917 1.26624 3.47445 1.26624H16.5253C17.1406 1.26624 17.6624 1.48047 18.0909 1.90894C18.5194 2.33742 18.7336 2.85929 18.7336 3.47457V13.1921C18.7336 13.8073 18.5194 14.3292 18.0909 14.7577C17.6624 15.1862 17.1406 15.4004 16.5253 15.4004H4.59945L1.26611 18.7337ZM3.89111 13.1921H16.5253V3.47457H3.47445V13.5996L3.89111 13.1921Z" fill="white"/>
</g>
</svg>
