<svg width="20" height="20" viewBox="0 0 20 20" fill="none" xmlns="http://www.w3.org/2000/svg">
<mask id="mask0_66_216" style="mask-type:alpha" maskUnits="userSpaceOnUse" x="0" y="0" width="20" height="20">
<rect width="20" height="20" fill="#D9D9D9"/>
</mask>
<g mask="url(#mask0_66_216)">
<path d="M10 14.4964C11.0109 14.4964 11.8721 14.1406 12.5838 13.4289C13.2954 12.7173 13.6513 11.856 13.6513 10.8452H6.34878C6.34878 11.856 6.70461 12.7173 7.41628 13.4289C8.12794 14.1406 8.98919 14.4964 10 14.4964ZM5.50357 7.4529H9.39044C9.39044 6.9161 9.19947 6.45894 8.81753 6.08144C8.43572 5.70408 7.97662 5.5154 7.44023 5.5154C6.90398 5.5154 6.44718 5.70408 6.06982 6.08144C5.69232 6.45894 5.50357 6.9161 5.50357 7.4529ZM10.5979 7.4529H14.4965C14.4965 6.9161 14.3055 6.45894 13.9236 6.08144C13.5416 5.70408 13.0825 5.5154 12.5463 5.5154C12.01 5.5154 11.5512 5.70408 11.1698 6.08144C10.7886 6.45894 10.5979 6.9161 10.5979 7.4529ZM9.99419 18.7337C8.90141 18.7337 7.87662 18.526 6.91982 18.1106C5.96301 17.6951 5.12815 17.1328 4.41523 16.4239C3.70246 15.7149 3.13829 14.8801 2.72273 13.9194C2.30732 12.9587 2.09961 11.934 2.09961 10.8454V1.26624H17.9004V10.8454C17.9004 11.934 17.6927 12.9587 17.2773 13.9194C16.8618 14.8801 16.298 15.7146 15.5861 16.4229C14.874 17.1311 14.0372 17.6932 13.0757 18.1094C12.114 18.5256 11.0868 18.7337 9.99419 18.7337ZM10 16.5254C11.5797 16.5254 12.9234 15.9736 14.0309 14.87C15.1384 13.7664 15.6921 12.4234 15.6921 10.841V3.47457H4.30794V10.841C4.30794 12.4234 4.86169 13.7664 5.96919 14.87C7.07669 15.9736 8.4203 16.5254 10 16.5254Z" fill="white"/>
</g>
</svg>
