<svg width="20" height="20" viewBox="0 0 20 20" fill="none" xmlns="http://www.w3.org/2000/svg">
<mask id="mask0_66_211" style="mask-type:alpha" maskUnits="userSpaceOnUse" x="0" y="0" width="20" height="20">
<rect width="20" height="20" fill="#D9D9D9"/>
</mask>
<g mask="url(#mask0_66_211)">
<path d="M10.0057 14.0725C10.2615 14.0725 10.4791 13.9828 10.6584 13.8033C10.8377 13.624 10.9274 13.4065 10.9274 13.1508C10.9274 12.8951 10.8385 12.6776 10.6607 12.4981C10.4829 12.3188 10.2626 12.2292 9.99986 12.2292C9.74806 12.2292 9.53049 12.3181 9.34715 12.4958C9.16396 12.6736 9.07236 12.8939 9.07236 13.1567C9.07236 13.4085 9.16396 13.624 9.34715 13.8033C9.53049 13.9828 9.75 14.0725 10.0057 14.0725ZM10.0057 10.9275C10.2615 10.9275 10.4791 10.8359 10.6584 10.6527C10.8377 10.4694 10.9274 10.2499 10.9274 9.99417C10.9274 9.73834 10.8385 9.52077 10.6607 9.34146C10.4829 9.16216 10.2626 9.0725 9.99986 9.0725C9.74806 9.0725 9.53049 9.16139 9.34715 9.33917C9.16396 9.51695 9.07236 9.73723 9.07236 10C9.07236 10.2518 9.16396 10.4694 9.34715 10.6527C9.53049 10.8359 9.75 10.9275 10.0057 10.9275ZM10.0057 7.77084C10.2615 7.77084 10.4791 7.67917 10.6584 7.49584C10.8377 7.31264 10.9274 7.0932 10.9274 6.83751C10.9274 6.58167 10.8385 6.36605 10.6607 6.19063C10.4829 6.01521 10.2626 5.92751 9.99986 5.92751C9.74806 5.92751 9.53049 6.01528 9.34715 6.19084C9.16396 6.36639 9.07236 6.58389 9.07236 6.84334C9.07236 7.09514 9.16396 7.31264 9.34715 7.49584C9.53049 7.67917 9.75 7.77084 10.0057 7.77084ZM16.5253 17.0671H3.47445C2.85917 17.0671 2.33729 16.8529 1.90882 16.4244C1.48035 15.9959 1.26611 15.474 1.26611 14.8588V11.4548C1.71667 11.4548 2.10709 11.3151 2.43736 11.0358C2.76764 10.7565 2.93278 10.4113 2.93278 10C2.93278 9.57306 2.76764 9.22389 2.43736 8.95251C2.10709 8.68098 1.71667 8.54521 1.26611 8.54521V5.14126C1.26611 4.52598 1.48035 4.0041 1.90882 3.57563C2.33729 3.14716 2.85917 2.93292 3.47445 2.93292H16.5253C17.1406 2.93292 17.6624 3.14716 18.0909 3.57563C18.5194 4.0041 18.7336 4.52598 18.7336 5.14126V8.54521C18.291 8.54521 17.9025 8.68098 17.5682 8.95251C17.234 9.22389 17.0669 9.57306 17.0669 10C17.0669 10.4113 17.234 10.7565 17.5682 11.0358C17.9025 11.3151 18.291 11.4548 18.7336 11.4548V14.8588C18.7336 15.474 18.5194 15.9959 18.0909 16.4244C17.6624 16.8529 17.1406 17.0671 16.5253 17.0671ZM16.5253 14.8588V12.934C16.0192 12.6205 15.6149 12.2049 15.3124 11.6871C15.0099 11.1693 14.8586 10.6055 14.8586 9.99563C14.8586 9.38563 15.0099 8.8232 15.3124 8.30834C15.6149 7.79362 16.0192 7.37952 16.5253 7.06605V5.14126H3.47445V7.06605C3.99625 7.37952 4.40452 7.79424 4.69924 8.31021C4.99382 8.82619 5.14111 9.38806 5.14111 9.99584C5.14111 10.6038 4.99382 11.167 4.69924 11.6856C4.40452 12.2044 3.99625 12.6205 3.47445 12.934V14.8588H16.5253Z" fill="white"/>
</g>
</svg>
