<svg width="20" height="20" viewBox="0 0 20 20" fill="none" xmlns="http://www.w3.org/2000/svg">
<mask id="mask0_66_231" style="mask-type:alpha" maskUnits="userSpaceOnUse" x="0" y="0" width="20" height="20">
<rect width="20" height="20" fill="#D9D9D9"/>
</mask>
<g mask="url(#mask0_66_231)">
<path d="M6.86702 12.6296H8.83993V10.1532H10.9439V12.4484L14.2258 9.1667L10.9439 5.87316V8.18024H7.85348C7.57806 8.18024 7.3448 8.27579 7.15369 8.46691C6.96257 8.65802 6.86702 8.89128 6.86702 9.1667V12.6296ZM10.0047 18.6867C9.73056 18.6867 9.45938 18.6332 9.19118 18.5263C8.92313 18.4195 8.67827 18.2552 8.4566 18.0336L1.9666 11.5436C1.74493 11.3219 1.5807 11.0776 1.47389 10.8107C1.36695 10.5436 1.31348 10.272 1.31348 9.99586C1.31348 9.71961 1.36695 9.44941 1.47389 9.18524C1.5807 8.92107 1.74493 8.67815 1.9666 8.45649L8.4566 1.96649C8.67771 1.74482 8.92181 1.57864 9.18889 1.46795C9.45598 1.35711 9.72771 1.3017 10.0041 1.3017C10.2805 1.3017 10.5513 1.35711 10.8166 1.46795C11.0817 1.57864 11.3241 1.74482 11.5437 1.96649L18.0337 8.45649C18.2554 8.67621 18.4215 8.91885 18.5322 9.18441C18.6431 9.44996 18.6985 9.7201 18.6985 9.99482C18.6985 10.2694 18.6431 10.5407 18.5322 10.8088C18.4215 11.0768 18.2554 11.3218 18.0337 11.5436L11.5437 18.0336C11.322 18.2552 11.0787 18.4195 10.8137 18.5263C10.5485 18.6332 10.2789 18.6867 10.0047 18.6867ZM6.77285 13.2273L10.0001 16.4665L16.4666 10L10.0001 3.53357L3.53369 10L6.77285 13.2273Z" fill="white"/>
</g>
</svg>
