<svg width="20" height="20" viewBox="0 0 20 20" fill="none" xmlns="http://www.w3.org/2000/svg">
<mask id="mask0_66_236" style="mask-type:alpha" maskUnits="userSpaceOnUse" x="0" y="0" width="20" height="20">
<rect width="20" height="20" fill="#D9D9D9"/>
</mask>
<g mask="url(#mask0_66_236)">
<path d="M4.30794 18.7338C3.69266 18.7338 3.17079 18.5195 2.74232 18.0911C2.31385 17.6626 2.09961 17.1407 2.09961 16.5254V6.91397C2.09961 6.29869 2.31385 5.77682 2.74232 5.34835C3.17079 4.91987 3.69266 4.70564 4.30794 4.70564H5.65669C5.65669 3.49786 6.07864 2.47203 6.92253 1.62814C7.76641 0.784249 8.79225 0.362305 10 0.362305C11.2078 0.362305 12.2336 0.784249 13.0775 1.62814C13.9214 2.47203 14.3434 3.49786 14.3434 4.70564H15.6921C16.3074 4.70564 16.8293 4.91987 17.2577 5.34835C17.6862 5.77682 17.9004 6.29869 17.9004 6.91397V16.5254C17.9004 17.1407 17.6862 17.6626 17.2577 18.0911C16.8293 18.5195 16.3074 18.7338 15.6921 18.7338H4.30794ZM4.30794 16.5254H15.6921V6.91397H4.30794V16.5254ZM13.0775 10.8248C13.9214 9.98092 14.3434 8.95508 14.3434 7.7473H12.135C12.135 8.34758 11.9293 8.85348 11.5177 9.26501C11.1062 9.67654 10.6003 9.8823 10 9.8823C9.39975 9.8823 8.89385 9.67654 8.48232 9.26501C8.07079 8.85348 7.86503 8.34758 7.86503 7.7473H5.65669C5.65669 8.95508 6.07864 9.98092 6.92253 10.8248C7.76641 11.6687 8.79225 12.0906 10 12.0906C11.2078 12.0906 12.2336 11.6687 13.0775 10.8248ZM7.86503 4.70564H12.135C12.135 4.10536 11.9293 3.59946 11.5177 3.18793C11.1062 2.7764 10.6003 2.57064 10 2.57064C9.39975 2.57064 8.89385 2.7764 8.48232 3.18793C8.07079 3.59946 7.86503 4.10536 7.86503 4.70564Z" fill="white"/>
</g>
</svg>
