<svg width="24" height="24" viewBox="0 0 24 24" fill="none" xmlns="http://www.w3.org/2000/svg">
<mask id="mask0_109_1634" style="mask-type:alpha" maskUnits="userSpaceOnUse" x="0" y="0" width="24" height="24">
<rect width="24" height="24" fill="#D9D9D9"/>
</mask>
<g mask="url(#mask0_109_1634)">
<path d="M8.5 18.5H15.5V17H8.5V18.5ZM12 15.5C13.3833 15.5 14.5625 15.0125 15.5375 14.0375C16.5125 13.0625 17 11.8833 17 10.5C17 9.11667 16.5125 7.9375 15.5375 6.9625C14.5625 5.9875 13.3833 5.5 12 5.5C10.6167 5.5 9.4375 5.9875 8.4625 6.9625C7.4875 7.9375 7 9.11667 7 10.5C7 11.8833 7.4875 13.0625 8.4625 14.0375C9.4375 15.0125 10.6167 15.5 12 15.5ZM12 13.825C11.8667 13.6417 11.725 13.3375 11.575 12.9125C11.425 12.4875 11.325 11.9333 11.275 11.25H12.725C12.675 11.9333 12.575 12.4875 12.425 12.9125C12.275 13.3375 12.1333 13.6417 12 13.825ZM10.2 13.5C9.8 13.25 9.45833 12.9333 9.175 12.55C8.89167 12.1667 8.7 11.7333 8.6 11.25H9.775C9.80833 11.6667 9.85833 12.0625 9.925 12.4375C9.99167 12.8125 10.0833 13.1667 10.2 13.5ZM13.8 13.5C13.9167 13.1667 14.0083 12.8125 14.075 12.4375C14.1417 12.0625 14.1917 11.6667 14.225 11.25H15.4C15.3 11.7333 15.1083 12.1667 14.825 12.55C14.5417 12.9333 14.2 13.25 13.8 13.5ZM8.6 9.75C8.7 9.26667 8.89167 8.83333 9.175 8.45C9.45833 8.06667 9.8 7.75 10.2 7.5C10.0833 7.83333 9.99167 8.1875 9.925 8.5625C9.85833 8.9375 9.80833 9.33333 9.775 9.75H8.6ZM11.275 9.75C11.325 9.06667 11.425 8.5125 11.575 8.0875C11.725 7.6625 11.8667 7.35833 12 7.175C12.1333 7.35833 12.275 7.6625 12.425 8.0875C12.575 8.5125 12.675 9.06667 12.725 9.75H11.275ZM14.225 9.75C14.1917 9.33333 14.1417 8.9375 14.075 8.5625C14.0083 8.1875 13.9167 7.83333 13.8 7.5C14.2 7.75 14.5417 8.06667 14.825 8.45C15.1083 8.83333 15.3 9.26667 15.4 9.75H14.225ZM4 22V2H18C18.55 2 19.0208 2.19583 19.4125 2.5875C19.8042 2.97917 20 3.45 20 4V20C20 20.55 19.8042 21.0208 19.4125 21.4125C19.0208 21.8042 18.55 22 18 22H4ZM6 20H18V4H6V20Z" fill="#78716C"/>
</g>
</svg>
